<?xml version="1.0" standalone="no"?>
<!DOCTYPE svg PUBLIC "-//W3C//DTD SVG 20010904//EN"
 "http://www.w3.org/TR/2001/REC-SVG-20010904/DTD/svg10.dtd">
<svg version="1.0" xmlns="http://www.w3.org/2000/svg"
 width="300.000000pt" height="382.000000pt" viewBox="0 0 300.000000 382.000000"
 preserveAspectRatio="xMidYMid meet">
<metadata>
Created by potrace 1.10, written by Peter Selinger 2001-2011
</metadata>
<g transform="translate(0.000000,382.000000) scale(0.050000,-0.050000)"
fill="#000000" stroke="none">
<path d="M211 7594 c-101 -57 -163 -148 -190 -280 -43 -205 -18 -6967 25
-7064 110 -244 315 -311 558 -183 69 37 765 484 1546 993 781 510 1915 1249
2520 1643 1295 843 1292 841 1323 1066 41 296 82 263 -1993 1613 -984 640
-2141 1394 -2570 1674 -930 608 -1024 649 -1219 538z m2129 -1834 c963 -608
2044 -1291 2404 -1517 494 -312 648 -419 630 -436 -13 -12 -649 -416 -1414
-898 -765 -482 -1843 -1162 -2398 -1512 -554 -351 -1010 -637 -1015 -637 -4 0
-7 1378 -7 3062 0 2442 5 3060 25 3053 14 -6 813 -507 1775 -1115z"/>
</g>
</svg>
